<svg width="392" height="92" viewBox="0 0 392 92" fill="none" xmlns="http://www.w3.org/2000/svg">
    <path d="M199.512 2.87266L188.981 24.2249L165.419 27.66C161.194 28.2728 159.5 33.4819 162.564 36.4654L179.611 53.0762L175.579 76.5411C174.853 80.7826 179.32 83.9596 183.062 81.976L204.14 70.8967L225.218 81.976C228.96 83.9435 233.427 80.7826 232.701 76.5411L228.669 53.0762L245.716 36.4654C248.78 33.4819 247.086 28.2728 242.861 27.66L219.299 24.2249L208.768 2.87266C206.882 -0.933326 201.415 -0.981707 199.512 2.87266Z" fill="black"/>
    <path d="M24.384 71C24.128 70.0613 23.936 69.0587 23.808 67.992C23.7227 66.9253 23.68 65.688 23.68 64.28H23.424V48.856C23.424 47.5333 22.976 46.5093 22.08 45.784C21.2267 45.016 19.9467 44.632 18.24 44.632C16.6187 44.632 15.3173 44.9093 14.336 45.464C13.3973 46.0187 12.7787 46.8293 12.48 47.896H3.328C3.75467 44.952 5.26933 42.52 7.872 40.6C10.4747 38.68 14.0373 37.72 18.56 37.72C23.2533 37.72 26.8373 38.7653 29.312 40.856C31.7867 42.9467 33.024 45.9547 33.024 49.88V64.28C33.024 65.3467 33.088 66.4347 33.216 67.544C33.3867 68.6107 33.6427 69.7627 33.984 71H24.384ZM12.992 71.64C9.74933 71.64 7.168 70.8293 5.248 69.208C3.328 67.544 2.368 65.3467 2.368 62.616C2.368 59.5867 3.49867 57.1547 5.76 55.32C8.064 53.4427 11.264 52.2267 15.36 51.672L24.896 50.328V55.896L16.96 57.112C15.2533 57.368 13.9947 57.8373 13.184 58.52C12.3733 59.2027 11.968 60.1413 11.968 61.336C11.968 62.4027 12.352 63.2133 13.12 63.768C13.888 64.3227 14.912 64.6 16.192 64.6C18.1973 64.6 19.904 64.0667 21.312 63C22.72 61.8907 23.424 60.6107 23.424 59.16L24.32 64.28C23.3813 66.712 21.952 68.5467 20.032 69.784C18.112 71.0213 15.7653 71.64 12.992 71.64ZM52.7115 71.64C47.9328 71.64 44.1355 70.68 41.3195 68.76C38.5035 66.84 36.9675 64.1947 36.7115 60.824H45.2875C45.5008 62.2747 46.2262 63.384 47.4635 64.152C48.7435 64.8773 50.4928 65.24 52.7115 65.24C54.7168 65.24 56.1675 64.9627 57.0635 64.408C58.0022 63.8107 58.4715 62.9787 58.4715 61.912C58.4715 61.1013 58.1942 60.4827 57.6395 60.056C57.1275 59.5867 56.1675 59.2027 54.7595 58.904L49.5115 57.816C45.6288 57.0053 42.7702 55.7893 40.9355 54.168C39.1008 52.504 38.1835 50.3707 38.1835 47.768C38.1835 44.6107 39.3995 42.1573 41.8315 40.408C44.2635 38.616 47.6555 37.72 52.0075 37.72C56.3168 37.72 59.7515 38.5947 62.3115 40.344C64.8715 42.0507 66.2795 44.44 66.5355 47.512H57.9595C57.7888 46.4027 57.1915 45.5707 56.1675 45.016C55.1435 44.4187 53.6928 44.12 51.8155 44.12C50.1088 44.12 48.8288 44.376 47.9755 44.888C47.1648 45.3573 46.7595 46.04 46.7595 46.936C46.7595 47.704 47.1008 48.3227 47.7835 48.792C48.4662 49.2187 49.5968 49.6027 51.1755 49.944L57.0635 51.16C60.3488 51.8427 62.8235 53.1227 64.4875 55C66.1942 56.8347 67.0475 59.0107 67.0475 61.528C67.0475 64.728 65.7888 67.224 63.2715 69.016C60.7968 70.7653 57.2768 71.64 52.7115 71.64ZM87.1405 71.704C82.9592 71.704 79.8445 70.7013 77.7965 68.696C75.7912 66.648 74.7885 63.5547 74.7885 59.416V31.064L84.3885 27.48V59.736C84.3885 61.1867 84.7938 62.2747 85.6045 63C86.4152 63.7253 87.6738 64.088 89.3805 64.088C90.0205 64.088 90.6178 64.024 91.1725 63.896C91.7272 63.768 92.2818 63.6187 92.8365 63.448V70.744C92.2818 71.0427 91.4925 71.2773 90.4685 71.448C89.4872 71.6187 88.3778 71.704 87.1405 71.704ZM68.7085 45.656V38.36H92.8365V45.656H68.7085ZM98.59 71V38.36H107.998V46.04H108.19V71H98.59ZM108.19 53.976L107.358 46.232C108.126 43.4587 109.385 41.3467 111.134 39.896C112.883 38.4453 115.059 37.72 117.662 37.72C118.473 37.72 119.07 37.8053 119.454 37.976V46.936C119.241 46.8507 118.942 46.808 118.558 46.808C118.174 46.7653 117.705 46.744 117.15 46.744C114.078 46.744 111.817 47.2987 110.366 48.408C108.915 49.4747 108.19 51.3307 108.19 53.976ZM139.078 71.64C135.494 71.64 132.337 70.936 129.606 69.528C126.918 68.0773 124.806 66.072 123.27 63.512C121.777 60.9093 121.03 57.9227 121.03 54.552C121.03 51.1813 121.777 48.2373 123.27 45.72C124.806 43.2027 126.918 41.24 129.606 39.832C132.337 38.424 135.494 37.72 139.078 37.72C142.705 37.72 145.862 38.424 148.55 39.832C151.281 41.24 153.393 43.2027 154.886 45.72C156.379 48.2373 157.126 51.1813 157.126 54.552C157.126 57.9227 156.358 60.9093 154.822 63.512C153.329 66.072 151.217 68.0773 148.486 69.528C145.798 70.936 142.662 71.64 139.078 71.64ZM139.078 64.088C140.571 64.088 141.915 63.704 143.11 62.936C144.347 62.168 145.329 61.08 146.054 59.672C146.779 58.2213 147.142 56.4933 147.142 54.488C147.142 51.544 146.353 49.2827 144.774 47.704C143.238 46.0827 141.339 45.272 139.078 45.272C136.817 45.272 134.897 46.0827 133.318 47.704C131.782 49.3253 131.014 51.5867 131.014 54.488C131.014 56.4933 131.377 58.2213 132.102 59.672C132.827 61.08 133.787 62.168 134.982 62.936C136.219 63.704 137.585 64.088 139.078 64.088ZM274.499 71.64C271.086 71.64 268.078 70.9147 265.475 69.464C262.872 68.0133 260.824 66.008 259.331 63.448C257.88 60.888 257.155 57.9653 257.155 54.68C257.155 51.3947 257.88 48.472 259.331 45.912C260.824 43.352 262.872 41.3467 265.475 39.896C268.078 38.4453 271.086 37.72 274.499 37.72C277.358 37.72 279.918 38.2533 282.179 39.32C284.483 40.344 286.36 41.7733 287.811 43.608C289.304 45.4427 290.264 47.5973 290.691 50.072H281.411C280.942 48.4933 280.088 47.2987 278.851 46.488C277.656 45.6773 276.248 45.272 274.627 45.272C273.091 45.272 271.747 45.656 270.595 46.424C269.486 47.192 268.632 48.28 268.035 49.688C267.438 51.096 267.139 52.76 267.139 54.68C267.139 56.6 267.438 58.264 268.035 59.672C268.632 61.08 269.486 62.168 270.595 62.936C271.747 63.704 273.091 64.088 274.627 64.088C276.248 64.088 277.656 63.6827 278.851 62.872C280.088 62.0613 280.942 60.8667 281.411 59.288H290.691C290.264 61.7627 289.304 63.9173 287.811 65.752C286.36 67.5867 284.483 69.0373 282.179 70.104C279.918 71.128 277.358 71.64 274.499 71.64ZM295.653 71V24.92H305.253V71H295.653ZM318.373 71V50.776C318.373 48.984 317.903 47.64 316.965 46.744C316.069 45.848 314.746 45.4 312.997 45.4C311.503 45.4 310.159 45.7413 308.965 46.424C307.813 47.1067 306.895 48.0453 306.213 49.24C305.573 50.4347 305.253 51.8427 305.253 53.464L304.421 45.592C305.487 43.2027 307.045 41.304 309.093 39.896C311.183 38.4453 313.743 37.72 316.773 37.72C320.399 37.72 323.173 38.744 325.093 40.792C327.013 42.7973 327.972 45.5067 327.972 48.92V71H318.373ZM355.009 71C354.753 70.0613 354.561 69.0587 354.433 67.992C354.348 66.9253 354.305 65.688 354.305 64.28H354.049V48.856C354.049 47.5333 353.601 46.5093 352.705 45.784C351.852 45.016 350.572 44.632 348.865 44.632C347.244 44.632 345.942 44.9093 344.961 45.464C344.022 46.0187 343.404 46.8293 343.105 47.896H333.953C334.38 44.952 335.894 42.52 338.497 40.6C341.1 38.68 344.662 37.72 349.185 37.72C353.878 37.72 357.462 38.7653 359.937 40.856C362.412 42.9467 363.649 45.9547 363.649 49.88V64.28C363.649 65.3467 363.713 66.4347 363.841 67.544C364.012 68.6107 364.268 69.7627 364.609 71H355.009ZM343.617 71.64C340.374 71.64 337.793 70.8293 335.873 69.208C333.953 67.544 332.993 65.3467 332.993 62.616C332.993 59.5867 334.124 57.1547 336.385 55.32C338.689 53.4427 341.889 52.2267 345.985 51.672L355.521 50.328V55.896L347.585 57.112C345.878 57.368 344.62 57.8373 343.809 58.52C342.998 59.2027 342.593 60.1413 342.593 61.336C342.593 62.4027 342.977 63.2133 343.745 63.768C344.513 64.3227 345.537 64.6 346.817 64.6C348.822 64.6 350.529 64.0667 351.937 63C353.345 61.8907 354.049 60.6107 354.049 59.16L354.945 64.28C354.006 66.712 352.577 68.5467 350.657 69.784C348.737 71.0213 346.39 71.64 343.617 71.64ZM384.266 71.704C380.084 71.704 376.97 70.7013 374.922 68.696C372.916 66.648 371.914 63.5547 371.914 59.416V31.064L381.514 27.48V59.736C381.514 61.1867 381.919 62.2747 382.73 63C383.54 63.7253 384.799 64.088 386.506 64.088C387.146 64.088 387.743 64.024 388.298 63.896C388.852 63.768 389.407 63.6187 389.962 63.448V70.744C389.407 71.0427 388.618 71.2773 387.594 71.448C386.612 71.6187 385.503 71.704 384.266 71.704ZM365.834 45.656V38.36H389.962V45.656H365.834Z" fill="black"/>
</svg>
